<?xml version="1.0" encoding="utf-8"?>
<!-- Generator: Adobe Illustrator 13.0.0, SVG Export Plug-In . SVG Version: 6.00 Build 14948)  -->
<!DOCTYPE svg PUBLIC "-//W3C//DTD SVG 1.1//EN" "http://www.w3.org/Graphics/SVG/1.1/DTD/svg11.dtd">
<svg version="1.1" id="Layer_1" xmlns="http://www.w3.org/2000/svg" xmlns:xlink="http://www.w3.org/1999/xlink" x="0px" y="0px"
	 width="100px" height="100px" viewBox="-368 583 100 100" enable-background="new -368 583 100 100" xml:space="preserve">
<path fill="#46B652" d="M-330.495,616.544c0.227,0.113,0.483,0.241,0.752,0.376l1.695,0.831c-0.262,0.363-0.461,0.707-1.26,1.717
	c-1.579,1.994-4.488,5.667-4.319,8.224c0.762-0.149,2.588-1.248,3.837-2c2.321-1.398,4.514-2.718,6.126-2.718
	c0.006,0,0.01,0,0.016,0c2.451,0.014,3.5,3.107,4.426,5.835c0.288,0.848,0.692,2.041,1.027,2.609
	c0.214-0.742,0.332-2.265,0.409-3.25c0.118-1.523,0.23-2.962,0.573-3.914c0.851-2.348,5.553-1.258,12.104,0.537
	c0.517,0.142,1.001,0.274,1.433,0.388c-0.984-1.267-2.767-3.195-3.865-4.384c-1.257-1.36-2.266-2.632-2.715-3.273
	c0.377-0.246,0.798-0.505,1.138-0.716c1.919-1.18,3.018-1.892,3.295-2.804c0.11-0.366,0.056-0.758-0.147-1.076
	c-0.373-0.579-1.075-0.671-1.307-0.703c-2.262-0.299-9.492,1.054-12.384,1.972c0.301-3.548,1.457-6.003-0.608-8.868
	c-1.442-2.002-3.109,0.073-2.082,1.499c1.428,1.981,0.487,3.667,0.093,7.589c-0.13-0.056-0.271-0.118-0.421-0.185
	c-0.877-0.388-2.075-0.919-3.962-1.494c-1.197-0.365-2.32-0.618-3.336-0.753c-2.625-0.348-3.81,0.189-4.019,0.301l-0.311,0.165
	l-0.161,0.313c-0.159,0.309-0.186,0.666-0.074,1.003C-334.271,614.603-333.274,615.161-330.495,616.544z"/>
<path fill="#ED3439" d="M-306.923,618.711c0.226,0.277,0.465,0.56,0.725,0.842c4.449,4.812,5.49,6.163,4.896,7.211
	c-0.126,0.223-0.518,0.722-1.458,0.528c-0.665-0.137-1.672-0.414-2.836-0.733c-1.891-0.518-4.24-1.162-6.261-1.527
	c-2.862-0.519-3.539-0.189-3.646-0.118c-0.251,0.727-0.355,2.083-0.458,3.396c-0.207,2.68-0.384,4.353-1.356,4.98
	c-0.233,0.151-0.495,0.229-0.767,0.229c-0.175,0-0.354-0.033-0.53-0.097c-1.117-0.402-1.658-2-2.344-4.023
	c-0.656-1.935-1.556-4.584-2.701-4.591c-0.002,0-0.005,0-0.007,0c-1.101,0-3.362,1.362-5.18,2.456
	c-2.874,1.73-4.556,2.681-5.729,2.112c-0.275-0.133-0.754-0.478-0.854-1.276c-0.402-3.194,2.528-7.04,4.451-9.475
	c-7.358,3.219-12.363,9.38-13.443,16.584c-0.721,4.813,0.517,11.108,2.552,14.378c2.424,3.892,6.486,6.948,12.517,9.054
	c2.887,1.007,6.799,2.113,10.478,2.596c14.582,1.916,25.714-6.772,27.337-19.017C-290.242,632.451-296.65,623.049-306.923,618.711z
	 M-295.332,641.698c-0.243,1.216-0.824,3.643-1.989,6.231c-1.986,4.413-6.347,6.51-7.226,6.394c0,0,0,0-0.001,0
	c-0.075-0.011-0.146-0.028-0.214-0.061c-0.225-0.101-0.374-0.306-0.4-0.547c-0.047-0.444,0.23-0.65,0.9-1.146
	c1.167-0.862,3.596-2.66,4.923-5.607c1.092-2.429,1.778-4.926,2.233-6.577c0.535-1.944,0.697-2.53,1.415-2.435l0.095,0.013
	l0.102,0.042C-295.164,638.155-294.666,638.379-295.332,641.698z"/>
</svg>
